<svg width="16" height="16" viewBox="0 0 16 16" fill="none" xmlns="http://www.w3.org/2000/svg">
<path d="M15.0289 14.4926L11.4347 10.8991C12.4764 9.64847 12.9959 8.04431 12.885 6.42039C12.7741 4.79646 12.0414 3.2778 10.8394 2.18031C9.63732 1.08283 8.05842 0.491019 6.43114 0.528002C4.80385 0.564984 3.25347 1.22791 2.1025 2.37887C0.951542 3.52983 0.288617 5.08022 0.251635 6.7075C0.214652 8.33479 0.806459 9.91369 1.90394 11.1158C3.00143 12.3178 4.5201 13.0505 6.14402 13.1614C7.76795 13.2722 9.3721 12.7528 10.6228 11.711L14.2163 15.3052C14.2696 15.3586 14.333 15.4009 14.4027 15.4298C14.4724 15.4586 14.5471 15.4735 14.6226 15.4735C14.698 15.4735 14.7727 15.4586 14.8424 15.4298C14.9122 15.4009 14.9755 15.3586 15.0289 15.3052C15.0822 15.2519 15.1245 15.1885 15.1534 15.1188C15.1823 15.0491 15.1971 14.9744 15.1971 14.8989C15.1971 14.8235 15.1823 14.7488 15.1534 14.679C15.1245 14.6093 15.0822 14.546 15.0289 14.4926ZM1.4144 6.85918C1.4144 5.83696 1.71752 4.8377 2.28544 3.98776C2.85335 3.13782 3.66054 2.47537 4.60495 2.08419C5.54935 1.69301 6.58854 1.59065 7.59112 1.79008C8.59369 1.9895 9.51461 2.48175 10.2374 3.20456C10.9602 3.92738 11.4525 4.8483 11.6519 5.85087C11.8513 6.85344 11.749 7.89264 11.3578 8.83704C10.9666 9.78144 10.3042 10.5886 9.45422 11.1566C8.60428 11.7245 7.60502 12.0276 6.58281 12.0276C5.21253 12.0261 3.89881 11.4811 2.92987 10.5121C1.96094 9.54318 1.41592 8.22946 1.4144 6.85918Z" fill="black"/>
</svg>
